# xmcd
#
# Track frame offsets: 
#        150
#        19059
#        34528
#        54236
#        70425
#        87753
#        108759
#        134245
#        150848
#        171693
#        191236
#        209825
#        228800
#        242473
#        254794
#        279837
#
# Disc length: 4000 seconds
#
# Revision: 2
# Processed by: cddbd v1.5.2PL0 Copyright (c) Steve Scherf et al.
# Submitted via: ExactAudioCopy v0.95a4
#
DISCID=e00f9e10
DTITLE=Various Artist - Blind Pig Records 30th Anniversary Collection CD1
DYEAR=2006
DGENRE=Blues
TTITLE0=Tommy Castro - Just Like Me
TTITLE1=Smokin' Joe Kubek and Bnois King - I Saw It Coming
TTITLE2=Arthur Adams and B.B. King - The Long Haul
TTITLE3=Big Bill Morganfield - Evil
TTITLE4=Renee Austin and Delbert McClinton - Pretend We Never Met
TTITLE5=Popa Chubby - Back In My Baby's Arms
TTITLE6=Buddy Guy and Junior Wells - Hoodoo Man Blues
TTITLE7=Walter Horton - Put The Kettle On
TTITLE8=Debbie Davies - 24 Hour Fool
TTITLE9=Omar and The Howlers - Monkey Land
TTITLE10=Otis Rush - Feel So Bad
TTITLE11=James Cotton - Honest I Do
TTITLE12=Elvin Bishop - What The Hell Is Going On
TTITLE13=Reverend Billy C. Wirtz - Jerry Rig
TTITLE14=Savoy Brown - Shake It All Night
TTITLE15=Jeremy Spencer - Precious Little
EXTD=
EXTT0=
EXTT1=
EXTT2=
EXTT3=
EXTT4=
EXTT5=
EXTT6=
EXTT7=
EXTT8=
EXTT9=
EXTT10=
EXTT11=
EXTT12=
EXTT13=
EXTT14=
EXTT15=
PLAYORDER=
